
<svg width="140px" height="28px" viewBox="0 0 140 28" version="1.1" xmlns="http://www.w3.org/2000/svg" xmlns:xlink="http://www.w3.org/1999/xlink">
    <g id="web" stroke="none" stroke-width="1" fill="none" fill-rule="evenodd">
        <g id="Desktop" transform="translate(-329.000000, -470.000000)" fill-rule="nonzero">
            <g id="partner" transform="translate(329.000000, 457.000000)">
                <g id="nervos-logo-title" transform="translate(0.000000, 13.000000)">
                    <polygon id="Path" fill="#000000" points="53.2883959 23.9810345 53.2883959 27.5896552 40.1843003 27.5896552 40.1843003 11.0913793 52.9897611 11.0913793 52.9897611 14.7 44.7593857 14.7 44.7593857 17.4758621 52.0102389 17.4758621 52.0102389 20.9637931 44.7593857 20.9637931 44.7593857 23.9810345"></polygon>
                    <path d="M67.1928328,23.2086207 L64.6723549,23.2086207 L64.6723549,27.5896552 L60.0494881,27.5896552 L60.0494881,11.0913793 L67.5153584,11.0913793 C68.996587,11.0913793 70.274744,11.3327586 71.3617747,11.8396552 C72.4488055,12.3344828 73.2849829,13.0465517 73.8822526,13.9637931 C74.4675768,14.8810345 74.7662116,15.9672414 74.7662116,17.1982759 C74.7662116,18.3931034 74.4914676,19.4310345 73.9419795,20.3241379 C73.3924915,21.2172414 72.6040956,21.9051724 71.5767918,22.412069 L75.1006826,27.6017241 L70.1552901,27.6017241 L67.1928328,23.2086207 Z M69.3788396,15.412069 C68.9010239,14.9896552 68.1843003,14.7724138 67.2286689,14.7724138 L64.6604096,14.7724138 L64.6604096,19.6 L67.2286689,19.6 C68.1723549,19.6 68.8890785,19.3948276 69.3788396,18.9724138 C69.8566553,18.562069 70.1075085,17.9586207 70.1075085,17.1982759 C70.1075085,16.4258621 69.8686007,15.8344828 69.3788396,15.412069 Z" id="Shape" fill="#000000"></path>
                    <polygon id="Path" fill="#000000" points="98.0716724 11.0913793 91.0716724 27.5896552 86.5204778 27.5896552 79.556314 11.0913793 84.5494881 11.0913793 88.9812287 21.8327586 93.5085324 11.0913793"></polygon>
                    <path d="M106.588737,26.8172414 C105.215017,26.0810345 104.127986,25.0551724 103.351536,23.7517241 C102.56314,22.4482759 102.168942,20.9758621 102.168942,19.3465517 C102.168942,17.7172414 102.56314,16.2448276 103.351536,14.9413793 C104.139932,13.637931 105.215017,12.612069 106.588737,11.8758621 C107.962457,11.1396552 109.515358,10.7655172 111.24744,10.7655172 C112.967577,10.7655172 114.520478,11.1396552 115.906143,11.8758621 C117.279863,12.612069 118.366894,13.637931 119.143345,14.9413793 C119.931741,16.2448276 120.325939,17.7172414 120.325939,19.3465517 C120.325939,20.9758621 119.931741,22.4482759 119.143345,23.7517241 C118.354949,25.0551724 117.279863,26.0810345 115.906143,26.8172414 C114.532423,27.5534483 112.979522,27.9275862 111.24744,27.9275862 C109.515358,27.9155172 107.974403,27.5534483 106.588737,26.8172414 Z M113.481229,23.462069 C114.150171,23.0758621 114.675768,22.5206897 115.069966,21.7965517 C115.464164,21.0844828 115.65529,20.2637931 115.65529,19.3344828 C115.65529,18.4051724 115.464164,17.5844828 115.069966,16.8724138 C114.675768,16.1603448 114.150171,15.6051724 113.481229,15.2068966 C112.812287,14.8206897 112.071672,14.6155172 111.24744,14.6155172 C110.423208,14.6155172 109.682594,14.8086207 109.013652,15.2068966 C108.34471,15.6051724 107.819113,16.1482759 107.424915,16.8724138 C107.030717,17.5844828 106.83959,18.4051724 106.83959,19.3344828 C106.83959,20.2637931 107.030717,21.0844828 107.424915,21.7965517 C107.819113,22.5086207 108.34471,23.0637931 109.013652,23.462069 C109.682594,23.8603448 110.423208,24.0534483 111.24744,24.0534483 C112.071672,24.0534483 112.812287,23.8603448 113.481229,23.462069 Z" id="Shape" fill="#3CC68A"></path>
                    <path d="M128.831058,27.4206897 C127.588737,27.0948276 126.573379,26.6482759 125.796928,26.1051724 L127.313993,22.6655172 C128.042662,23.1482759 128.890785,23.5465517 129.858362,23.8482759 C130.825939,24.15 131.769625,24.2948276 132.701365,24.2948276 C134.469283,24.2948276 135.365188,23.8482759 135.365188,22.9551724 C135.365188,22.4844828 135.114334,22.1344828 134.612628,21.9051724 C134.110922,21.6758621 133.298635,21.4344828 132.175768,21.1810345 C130.945392,20.9155172 129.918089,20.6258621 129.093857,20.3241379 C128.269625,20.0224138 127.564846,19.5275862 126.967577,18.8517241 C126.382253,18.1758621 126.083618,17.2706897 126.083618,16.112069 C126.083618,15.1103448 126.358362,14.2051724 126.895904,13.3965517 C127.445392,12.587931 128.257679,11.9482759 129.332765,11.4775862 C130.40785,11.0068966 131.733788,10.7655172 133.31058,10.7655172 C134.385666,10.7655172 135.43686,10.8862069 136.488055,11.1275862 C137.527304,11.3689655 138.447099,11.7310345 139.235495,12.2017241 L137.813993,15.6655172 C136.261092,14.8206897 134.755973,14.3982759 133.286689,14.3982759 C132.366894,14.3982759 131.697952,14.5310345 131.279863,14.8086207 C130.861775,15.0862069 130.646758,15.4362069 130.646758,15.8827586 C130.646758,16.3172414 130.897611,16.6551724 131.387372,16.8724138 C131.889078,17.0896552 132.68942,17.3189655 133.788396,17.5603448 C135.030717,17.8258621 136.05802,18.1155172 136.882253,18.4172414 C137.694539,18.7189655 138.411263,19.2137931 139.008532,19.8775862 C139.605802,20.5413793 139.904437,21.4586207 139.904437,22.6051724 C139.904437,23.5948276 139.629693,24.487931 139.09215,25.2965517 C138.542662,26.0931034 137.730375,26.7327586 136.643345,27.2155172 C135.556314,27.6982759 134.230375,27.9396552 132.677474,27.9396552 C131.363481,27.9155172 130.073379,27.7586207 128.831058,27.4206897 Z" id="Path" fill="#000000"></path>
                    <g id="Group">
                        <polygon id="Path" fill="#424242" points="0 0.0965517241 0 5.58793103 0 11.0793103 0 16.5827586 5.43515358 16.5827586 5.43515358 11.0793103 5.43515358 5.58793103 5.43515358 0.0965517241"></polygon>
                        <polygon id="Path" fill="#424242" points="26.9607509 11.0793103 26.9607509 16.5827586 26.9607509 22.0741379 26.9607509 27.5655172 32.3959044 27.5655172 32.3959044 22.0741379 32.3959044 16.5827586 32.3959044 11.0793103"></polygon>
                        <polygon id="Path" fill="#424242" points="16.0784983 0.0965517241 16.0784983 5.58793103 16.0784983 10.85 21.5136519 16.3413793 21.5136519 11.0793103 21.5136519 5.58793103"></polygon>
                        <polygon id="Path" fill="#424242" points="10.8822526 11.3206897 10.8822526 16.5827586 10.8822526 22.0741379 16.3174061 27.5655172 16.3174061 22.0741379 16.3174061 16.812069"></polygon>
                        <polygon id="Path" fill="#000000" points="16.0784983 0.0965517241 21.5136519 0.0965517241 32.3959044 11.0793103 26.9607509 11.0793103"></polygon>
                        <polygon id="Path" fill="#000000" points="0 16.5827586 5.43515358 16.5827586 16.3174061 27.5655172 10.8822526 27.5655172"></polygon>
                        <polygon id="Path" fill="#3CC68A" points="21.5136519 5.58793103 21.5136519 11.0793103 21.5136519 16.2689655 5.43515358 0.0965517241 5.43515358 5.58793103 5.43515358 5.92586207 5.43515358 11.0793103 5.43515358 16.5827586 10.8822526 22.0741379 10.8822526 16.5827586 10.8822526 11.3931034 26.9607509 27.5655172 26.9607509 22.0741379 26.9607509 21.7362069 26.9607509 16.5827586 26.9607509 11.0793103"></polygon>
                    </g>
                </g>
            </g>
        </g>
    </g>
</svg>