
<svg width="109px" height="41px" viewBox="0 0 109 41" version="1.1" xmlns="http://www.w3.org/2000/svg" xmlns:xlink="http://www.w3.org/1999/xlink">
    <g id="web" stroke="none" stroke-width="1" fill="none" fill-rule="evenodd">
        <g id="Desktop" transform="translate(-149.000000, -14.000000)" fill="#000000">
            <g id="nav">
                <path d="M180.990778,45.8507463 L180.990721,45.8534915 L165.796835,53.9988641 L165.508888,54 L150.009245,45.8546274 L150,45.4096001 L160.202411,39.5695489 L150.009245,34.2128364 L150.009164,34.2089552 L150,34.2089552 L150,24.3134328 L150.009164,24.3134328 L150,23.8722867 L165.499644,15 L165.806114,15.0012573 L181,23.873544 L180.990721,24.3161781 L172.555731,28.8381373 L181,33.7690664 L180.990778,34.2089552 L181,34.2089552 L181,45.8507463 L180.990778,45.8507463 Z M180.425926,45.0756338 L180.425926,34.5144844 L170.996609,39.5694978 L180.425926,45.0756338 Z M165.5,32.4580157 L159.168218,29.1305377 L150.574074,33.9749382 L160.763844,39.2481739 L165.499644,36.5373134 L165.5,32.4580157 Z M166.074074,32.3129241 L166.074074,36.6950426 L170.44203,39.2456577 L180.425926,33.9749889 L172.005608,29.133056 L166.074074,32.3129241 Z M165.5,41.6991485 L165.5,37.2031905 L161.341655,39.5471926 L165.5,41.6991485 Z M166.074074,41.5515758 L169.870755,39.5472433 L166.074074,37.364039 L166.074074,41.5515758 Z M165.5,42.3535381 L160.771467,39.8685994 L150.574074,45.6167293 L165.5,53.3409395 L165.5,42.3535381 Z M166.074074,42.2084465 L166.074074,53.1933668 L180.425926,45.61678 L170.433986,39.8711177 L166.074074,42.2084465 Z M150.574074,33.4391983 L158.611913,28.8381884 L150.574074,24.6141431 L150.574074,33.4391983 Z M172.01262,28.5209939 L180.425926,24.0794665 L165.648642,15.5820896 L150.574074,24.0794158 L159.161648,28.5235102 L165.499644,24.8955224 L165.806114,24.8967797 L172.01262,28.5209939 Z M171.454031,28.8158827 L165.648642,25.4776119 L159.726517,28.815832 L165.648735,31.880597 L171.454031,28.8158827 Z" id="Combined-Shape" stroke="#000000" stroke-width="0.5" fill-rule="nonzero"></path>
                <text id="Serios" font-family=".SFNSDisplay, .SF NS Display" font-size="20" font-weight="normal">
                    <tspan x="192" y="41">Serios</tspan>
                </text>
            </g>
        </g>
    </g>
</svg>