
<svg width="220px" height="160px" viewBox="0 0 220 160" version="1.1" xmlns="http://www.w3.org/2000/svg" xmlns:xlink="http://www.w3.org/1999/xlink">
    <g id="web" stroke="none" stroke-width="1" fill="none" fill-rule="evenodd">
        <g id="Desktop" transform="translate(-533.000000, -1449.000000)" fill="#F5F6F7" fill-rule="nonzero">
            <g id="quate" transform="translate(275.000000, 1374.000000)">
                <path d="M355,235 L258,235 L258,145.429743 C279.211947,113.271647 286.570733,101.270962 306.056359,75 L343.445977,75 C333.672479,98.2141133 324.860477,120.895084 314.88046,145.429743 L357,145.429743 L357,233 C357,234.104569 356.104569,235 355,235 Z M476,235 L379,235 L379,145.429743 C400.211947,113.271647 407.570733,101.270962 427.056359,75 L464.445977,75 C454.672479,98.2141133 445.860477,120.895084 435.88046,145.429743 L478,145.429743 L478,233 C478,234.104569 477.104569,235 476,235 Z" id="“"></path>
            </g>
        </g>
    </g>
</svg>